<svg id="Layer_1" data-name="Layer 1" xmlns="http://www.w3.org/2000/svg" viewBox="0 0 252.56 157.23"><defs><style>.cls-1{fill:#5900ff;}.cls-2{fill:#00c46a;}.cls-3{fill:blue;}.cls-4{fill:#0dc1b8;}.cls-5{fill:#003851;}</style></defs><path class="cls-1" d="M69.88,123.25a2.65,2.65,0,0,1-1.91-4.5c4.32-4.49,15.53-18.08,15.53-26.94,0-6-7.5-8.45-18.94-11.49-11.25-3-24-6.39-24-17.88,0-6.62,4.79-13.51,14.24-20.48a91.66,91.66,0,0,1,13.6-8.24,2.66,2.66,0,0,1,2.28,4.8c-6.9,3.28-24.8,14-24.8,23.92,0,6.89,7.94,9.52,20.06,12.74C76.66,78,88.81,81.27,88.81,91.81c0,12.81-16.32,29.91-17,30.63A2.63,2.63,0,0,1,69.88,123.25Z"/><path class="cls-2" d="M71.33,123.21A2.62,2.62,0,0,1,70,118.34c.35-.2,34.89-20.92,23.34-40.65-11.8-20.17-25.8-39.85-25.94-40a2.61,2.61,0,1,1,4.26-3c.14.19,14.27,20.07,26.19,40.44,6,10.19,3.34,21.79-7.59,33.55a87.63,87.63,0,0,1-17.6,14.24A2.57,2.57,0,0,1,71.33,123.21Z"/><path class="cls-3" d="M69.88,123.25a2.69,2.69,0,0,1-1.13-.25c-1-.49-25.86-12.25-33-28.9-4-9.26,4.23-17.61,12.95-26.44s18.74-19,18.22-31.43A2.66,2.66,0,0,1,72.18,36C72.8,50.74,62,61.71,52.43,71.39,44.68,79.24,38,86,40.58,92,47,106.81,70.77,118.07,71,118.19a2.66,2.66,0,0,1-1.13,5.06Z"/><path class="cls-4" d="M69.88,123.25a2.68,2.68,0,0,1-2.13-1.06c-.45-.61-11.11-15-10.54-26C57.75,85.81,62.1,75,68.94,60.8c5.67-11.74-1.57-23.12-1.64-23.23a2.66,2.66,0,1,1,4.46-2.9c.36.57,8.92,14,2,28.44C67.17,76.67,63,87,62.52,96.49c-.47,9.08,9.39,22.38,9.49,22.51a2.65,2.65,0,0,1-.54,3.72A2.62,2.62,0,0,1,69.88,123.25Z"/><path class="cls-5" d="M120.82,84.66a6,6,0,0,1,2.28-2.32,6.34,6.34,0,0,1,3.21-.83,6.49,6.49,0,0,1,3.62,1,5.68,5.68,0,0,1,2.25,2.83h-2a3.9,3.9,0,0,0-1.52-1.71,4.4,4.4,0,0,0-2.37-.61,4.61,4.61,0,0,0-2.38.61,4.17,4.17,0,0,0-1.66,1.74,5.57,5.57,0,0,0-.6,2.63,5.5,5.5,0,0,0,.6,2.62,4.2,4.2,0,0,0,1.66,1.73,4.61,4.61,0,0,0,2.38.61,4.49,4.49,0,0,0,2.37-.6,3.9,3.9,0,0,0,1.52-1.71h2a5.63,5.63,0,0,1-2.25,2.81,6.57,6.57,0,0,1-3.62,1,6.34,6.34,0,0,1-3.21-.82,5.93,5.93,0,0,1-2.28-2.3,7,7,0,0,1,0-6.67Z"/><path class="cls-5" d="M143.67,89.93h-8a3.26,3.26,0,0,0,1,2.32,3.18,3.18,0,0,0,2.25.86,3.1,3.1,0,0,0,1.79-.5,2.7,2.7,0,0,0,1-1.34h1.78a4.3,4.3,0,0,1-1.6,2.34,4.84,4.84,0,0,1-3,.9,5,5,0,0,1-2.54-.64,4.51,4.51,0,0,1-1.76-1.81,6.21,6.21,0,0,1,0-5.43,4.39,4.39,0,0,1,1.73-1.79,5.19,5.19,0,0,1,2.58-.62,5,5,0,0,1,2.5.61,4.42,4.42,0,0,1,1.68,1.7,4.84,4.84,0,0,1,.6,2.41A8.88,8.88,0,0,1,143.67,89.93ZM141.6,87A2.77,2.77,0,0,0,140.46,86a3.51,3.51,0,0,0-1.59-.36,3,3,0,0,0-2.16.82,3.26,3.26,0,0,0-1,2.29H142A3.23,3.23,0,0,0,141.6,87Z"/><path class="cls-5" d="M153.71,85.3a4.23,4.23,0,0,1,1.13,3.17v5.87H153.2V88.71a3.21,3.21,0,0,0-.74-2.28,2.67,2.67,0,0,0-2-.8,2.74,2.74,0,0,0-2.08.82,3.34,3.34,0,0,0-.78,2.39v5.5h-1.65v-10h1.65V85.8a3.33,3.33,0,0,1,1.34-1.18,4.17,4.17,0,0,1,1.87-.42A4,4,0,0,1,153.71,85.3Z"/><path class="cls-5" d="M159.57,85.74v5.88a1.37,1.37,0,0,0,.31,1,1.5,1.5,0,0,0,1.07.3h1.22v1.4h-1.49a3,3,0,0,1-2.08-.63,2.74,2.74,0,0,1-.69-2.09V85.74h-1.29V84.38h1.29V81.87h1.66v2.51h2.6v1.36Z"/><path class="cls-5" d="M173.2,89.93h-8a3.26,3.26,0,0,0,1,2.32,3.18,3.18,0,0,0,2.25.86,3.1,3.1,0,0,0,1.79-.5,2.7,2.7,0,0,0,1-1.34h1.78a4.3,4.3,0,0,1-1.6,2.34,4.84,4.84,0,0,1-3,.9,5,5,0,0,1-2.54-.64,4.51,4.51,0,0,1-1.76-1.81,5.63,5.63,0,0,1-.63-2.72,5.73,5.73,0,0,1,.62-2.71,4.39,4.39,0,0,1,1.73-1.79,5.19,5.19,0,0,1,2.58-.62,5,5,0,0,1,2.5.61,4.42,4.42,0,0,1,1.68,1.7,4.84,4.84,0,0,1,.6,2.41A8.88,8.88,0,0,1,173.2,89.93ZM171.13,87A2.81,2.81,0,0,0,170,86a3.52,3.52,0,0,0-1.6-.36,3.06,3.06,0,0,0-2.16.82,3.3,3.3,0,0,0-1,2.29h6.29A3.23,3.23,0,0,0,171.13,87Z"/><path class="cls-5" d="M178.34,84.74a3.48,3.48,0,0,1,2-.54v1.71h-.43c-1.86,0-2.78,1-2.78,3v5.41h-1.66v-10h1.66v1.89A3.56,3.56,0,0,1,178.34,84.74Z"/><path class="cls-5" d="M189.45,93.87a4.5,4.5,0,0,1-1.78-1.81,5.53,5.53,0,0,1-.65-2.72,5.46,5.46,0,0,1,.67-2.7,4.54,4.54,0,0,1,1.81-1.8,5.62,5.62,0,0,1,5.13,0,4.62,4.62,0,0,1,1.8,1.79,5.8,5.8,0,0,1,0,5.43,4.73,4.73,0,0,1-1.85,1.81,5.22,5.22,0,0,1-2.58.64A5.07,5.07,0,0,1,189.45,93.87Zm4.21-1.19a3.26,3.26,0,0,0,1.27-1.28,4.16,4.16,0,0,0,.48-2.06,4.05,4.05,0,0,0-.48-2A3.08,3.08,0,0,0,193.7,86a3.57,3.57,0,0,0-3.32,0,3,3,0,0,0-1.21,1.27,4.27,4.27,0,0,0-.45,2,4.37,4.37,0,0,0,.44,2.07,3.05,3.05,0,0,0,1.19,1.27,3.19,3.19,0,0,0,1.64.43A3.38,3.38,0,0,0,193.66,92.68Z"/><path class="cls-5" d="M203.34,85.74h-2.09v8.6h-1.66v-8.6H198.3V84.38h1.29v-.71a3.17,3.17,0,0,1,.86-2.45,4.14,4.14,0,0,1,2.78-.77v1.38a2.23,2.23,0,0,0-1.54.43,1.89,1.89,0,0,0-.44,1.41v.71h2.09Z"/><path class="cls-5" d="M122.25,102v4.35h4.62v1.27h-4.62v4.46h5.17v1.31H120.6V100.68h6.82V102Z"/><path class="cls-5" d="M135.13,113.37l-2.37-3.71-2.27,3.71h-1.75l3.22-5-3.2-5h1.89l2.33,3.68,2.27-3.68H137l-3.2,4.93,3.22,5Z"/><path class="cls-5" d="M138.64,105.67a4.41,4.41,0,0,1,1.71-1.79,5.45,5.45,0,0,1,5.55.25,4.19,4.19,0,0,1,1.57,2.47h-1.78a2.56,2.56,0,0,0-1-1.43,3.07,3.07,0,0,0-1.83-.53,2.93,2.93,0,0,0-2.29,1,4.84,4.84,0,0,0,0,5.54,2.94,2.94,0,0,0,2.29,1,3.08,3.08,0,0,0,1.82-.51,2.54,2.54,0,0,0,1-1.45h1.78a4.32,4.32,0,0,1-1.6,2.44,4.75,4.75,0,0,1-3,.92,5,5,0,0,1-2.52-.63,4.46,4.46,0,0,1-1.71-1.81,6.23,6.23,0,0,1,0-5.42Z"/><path class="cls-5" d="M158.71,109h-8a3.28,3.28,0,0,0,1,2.33,3.16,3.16,0,0,0,2.24.85,3,3,0,0,0,1.79-.5,2.62,2.62,0,0,0,1-1.33h1.79a4.31,4.31,0,0,1-1.6,2.33,4.85,4.85,0,0,1-3,.9,5.05,5.05,0,0,1-2.53-.63,4.58,4.58,0,0,1-1.76-1.81,6.25,6.25,0,0,1,0-5.43,4.41,4.41,0,0,1,1.74-1.79,5.15,5.15,0,0,1,2.57-.63,5,5,0,0,1,2.5.62,4.29,4.29,0,0,1,1.69,1.69,4.85,4.85,0,0,1,.6,2.42A8.71,8.71,0,0,1,158.71,109Zm-2.07-2.88A2.8,2.8,0,0,0,155.5,105a3.51,3.51,0,0,0-1.59-.36,3.06,3.06,0,0,0-2.16.83,3.22,3.22,0,0,0-1,2.28h6.29A3.17,3.17,0,0,0,156.64,106.07Z"/><path class="cls-5" d="M162.6,99.91v13.46H161V99.91Z"/><path class="cls-5" d="M167.08,99.91v13.46h-1.66V99.91Z"/><path class="cls-5" d="M178.93,109h-8a3.28,3.28,0,0,0,1,2.33,3.16,3.16,0,0,0,2.24.85,3,3,0,0,0,1.8-.5,2.74,2.74,0,0,0,1-1.33h1.78a4.31,4.31,0,0,1-1.6,2.33,4.85,4.85,0,0,1-3,.9,5.05,5.05,0,0,1-2.53-.63,4.58,4.58,0,0,1-1.76-1.81,6.25,6.25,0,0,1,0-5.43,4.41,4.41,0,0,1,1.74-1.79,5.15,5.15,0,0,1,2.57-.63,5,5,0,0,1,2.5.62,4.29,4.29,0,0,1,1.69,1.69A4.85,4.85,0,0,1,179,108,8.71,8.71,0,0,1,178.93,109Zm-2.07-2.88a2.8,2.8,0,0,0-1.14-1.07,3.51,3.51,0,0,0-1.59-.36,3.06,3.06,0,0,0-2.16.83,3.22,3.22,0,0,0-1,2.28h6.29A3.17,3.17,0,0,0,176.86,106.07Z"/><path class="cls-5" d="M189,104.32a4.23,4.23,0,0,1,1.13,3.17v5.88h-1.64v-5.64a3.24,3.24,0,0,0-.74-2.28,2.67,2.67,0,0,0-2-.79,2.7,2.7,0,0,0-2.08.82,3.31,3.31,0,0,0-.78,2.38v5.51h-1.65v-10h1.65v1.42a3.33,3.33,0,0,1,1.34-1.18,4.13,4.13,0,0,1,1.86-.42A4,4,0,0,1,189,104.32Z"/><path class="cls-5" d="M192.81,105.67a4.41,4.41,0,0,1,1.71-1.79,5.45,5.45,0,0,1,5.55.25,4.15,4.15,0,0,1,1.57,2.47h-1.78a2.56,2.56,0,0,0-1-1.43,3.07,3.07,0,0,0-1.83-.53,2.93,2.93,0,0,0-2.29,1,4.84,4.84,0,0,0,0,5.54,2.94,2.94,0,0,0,2.29,1,3.08,3.08,0,0,0,1.82-.51,2.54,2.54,0,0,0,1-1.45h1.78a4.32,4.32,0,0,1-1.6,2.44,4.75,4.75,0,0,1-3,.92,5,5,0,0,1-2.52-.63,4.46,4.46,0,0,1-1.71-1.81,6.23,6.23,0,0,1,0-5.42Z"/><path class="cls-5" d="M212.88,109h-8a3.28,3.28,0,0,0,1,2.33,3.16,3.16,0,0,0,2.24.85,3,3,0,0,0,1.8-.5,2.74,2.74,0,0,0,1-1.33h1.78a4.31,4.31,0,0,1-1.6,2.33,4.85,4.85,0,0,1-3,.9,5.05,5.05,0,0,1-2.53-.63,4.58,4.58,0,0,1-1.76-1.81,5.69,5.69,0,0,1-.63-2.72,5.59,5.59,0,0,1,.62-2.71,4.33,4.33,0,0,1,1.73-1.79,5.15,5.15,0,0,1,2.57-.63,5,5,0,0,1,2.5.62,4.29,4.29,0,0,1,1.69,1.69,4.85,4.85,0,0,1,.6,2.42A8.71,8.71,0,0,1,212.88,109Zm-2.07-2.88a2.8,2.8,0,0,0-1.14-1.07,3.51,3.51,0,0,0-1.59-.36,3.06,3.06,0,0,0-2.16.83,3.22,3.22,0,0,0-1,2.28h6.29A3.17,3.17,0,0,0,210.81,106.07Z"/><path class="cls-5" d="M124.6,71.4h-4.91V45.33h4.91Z"/><path class="cls-5" d="M131.89,69a9.37,9.37,0,0,1-2.74-6.95,9.37,9.37,0,0,1,2.74-6.94,10.34,10.34,0,0,1,14,0,10.14,10.14,0,0,1,0,13.89,10.34,10.34,0,0,1-14,0Zm3.34-10.6A5.38,5.38,0,1,0,138.89,57,5,5,0,0,0,135.23,58.42Z"/><path class="cls-5" d="M150.48,50V45.31h20.13V50H163V71.4H158.1V50Z"/><path class="cls-5" d="M185.14,71.75A13.63,13.63,0,0,1,178.27,70a12.66,12.66,0,0,1-4.84-4.82,14,14,0,0,1,0-13.64,12.62,12.62,0,0,1,4.84-4.83A13.74,13.74,0,0,1,185.14,45a12.78,12.78,0,0,1,5.35,1.21,12.18,12.18,0,0,1,4.27,3.16l-1.19,1.34a3,3,0,0,1-1.77,1,2.82,2.82,0,0,1-1.92-.34A8.44,8.44,0,0,0,179,52.2a9,9,0,0,0,0,12.32A8.23,8.23,0,0,0,185.1,67a7.89,7.89,0,0,0,4.82-1.58,2.85,2.85,0,0,1,2-.42,2.93,2.93,0,0,1,1.76,1l1.2,1.33a11.91,11.91,0,0,1-4.29,3.23A12.58,12.58,0,0,1,185.14,71.75Z"/><path class="cls-5" d="M216.16,71.4H199.34V45.31h16.82v4.74H204.25v5.77h9.67v4.56h-9.67v6.28h11.91Z"/></svg>